<svg width="20" height="20" viewBox="0 0 20 20" fill="none" xmlns="http://www.w3.org/2000/svg">
<path d="M9.38063 1.61975L0.710064 17.7136C0.457708 18.182 0.797148 18.75 1.32943 18.75H18.6706C19.2029 18.75 19.5423 18.182 19.2899 17.7136L10.6194 1.61975C10.3538 1.12675 9.64623 1.12675 9.38063 1.61975Z" fill="#FF5533"/>
<path fill-rule="evenodd" clip-rule="evenodd" d="M1.91829 17.6954H18.0817L10 2.69455L1.91829 17.6954ZM0.710064 17.7136L9.38063 1.61975C9.64623 1.12675 10.3538 1.12675 10.6194 1.61975L19.2899 17.7136C19.5423 18.182 19.2029 18.75 18.6706 18.75H1.32943C0.797148 18.75 0.457708 18.182 0.710064 17.7136Z" fill="#ECF5FF"/>
<path d="M10.7459 8.27643V11.2252C10.7459 11.5414 10.7263 11.8559 10.6873 12.1686C10.6482 12.4779 10.5967 12.7941 10.5328 13.1172H9.4142C9.35028 12.7941 9.29878 12.4779 9.25972 12.1686C9.22066 11.8559 9.20113 11.5414 9.20113 11.2252V8.27643H10.7459ZM9.02002 14.9782C9.02002 14.8545 9.0431 14.7394 9.08927 14.6328C9.13898 14.5263 9.20468 14.4335 9.28635 14.3544C9.37158 14.2754 9.47101 14.2135 9.58465 14.1688C9.69829 14.1207 9.82258 14.0967 9.95752 14.0967C10.0889 14.0967 10.2114 14.1207 10.3251 14.1688C10.4387 14.2135 10.5381 14.2754 10.6234 14.3544C10.7086 14.4335 10.7743 14.5263 10.8204 14.6328C10.8702 14.7394 10.895 14.8545 10.895 14.9782C10.895 15.1019 10.8702 15.2188 10.8204 15.3288C10.7743 15.4353 10.7086 15.5281 10.6234 15.6072C10.5381 15.6862 10.4387 15.7481 10.3251 15.7927C10.2114 15.8374 10.0889 15.8598 9.95752 15.8598C9.82258 15.8598 9.69829 15.8374 9.58465 15.7927C9.47101 15.7481 9.37158 15.6862 9.28635 15.6072C9.20468 15.5281 9.13898 15.4353 9.08927 15.3288C9.0431 15.2188 9.02002 15.1019 9.02002 14.9782Z" fill="#ECF5FF"/>
</svg>
